<svg width="27" height="24" viewBox="0 0 27 24" fill="none" xmlns="http://www.w3.org/2000/svg">
<path d="M1.5 4.5C0.947715 4.5 0.5 4.94772 0.5 5.5C0.5 6.05228 0.947715 6.5 1.5 6.5L1.5 4.5ZM1.5 6.5L16.5 6.5V4.5L1.5 4.5L1.5 6.5Z" fill="#14213F"/>
<path fill-rule="evenodd" clip-rule="evenodd" d="M20.5 10.5C23.2614 10.5 25.5 8.26142 25.5 5.5C25.5 2.73858 23.2614 0.5 20.5 0.5C17.7386 0.5 15.5 2.73858 15.5 5.5C15.5 8.26142 17.7386 10.5 20.5 10.5ZM20.5 8.5C22.1569 8.5 23.5 7.15685 23.5 5.5C23.5 3.84315 22.1569 2.5 20.5 2.5C18.8431 2.5 17.5 3.84315 17.5 5.5C17.5 7.15685 18.8431 8.5 20.5 8.5Z" fill="#14213F"/>
<path d="M25.4995 19.5C26.0518 19.5 26.4995 19.0523 26.4995 18.5C26.4995 17.9477 26.0518 17.5 25.4995 17.5V19.5ZM25.4995 17.5L10.4995 17.5V19.5H25.4995V17.5Z" fill="#14213F"/>
<path fill-rule="evenodd" clip-rule="evenodd" d="M6.5 13.5C3.73858 13.5 1.5 15.7386 1.5 18.5C1.5 21.2614 3.73858 23.5 6.5 23.5C9.26142 23.5 11.5 21.2614 11.5 18.5C11.5 15.7386 9.26142 13.5 6.5 13.5ZM6.5 15.5C4.84315 15.5 3.5 16.8431 3.5 18.5C3.5 20.1569 4.84315 21.5 6.5 21.5C8.15685 21.5 9.5 20.1569 9.5 18.5C9.5 16.8431 8.15685 15.5 6.5 15.5Z" fill="#14213F"/>
</svg>
